<?xml version="1.0" standalone="no"?>
<!DOCTYPE svg PUBLIC "-//W3C//DTD SVG 20010904//EN"
 "http://www.w3.org/TR/2001/REC-SVG-20010904/DTD/svg10.dtd">
<svg version="1.0" xmlns="http://www.w3.org/2000/svg"
 width="1200.000000pt" height="1200.000000pt" viewBox="0 0 1200.000000 1200.000000"
 preserveAspectRatio="xMidYMid meet">
<metadata>
Created by potrace 1.14, written by Peter Selinger 2001-2017
</metadata>
<g transform="translate(0.000000,1200.000000) scale(0.100000,-0.100000)"
fill="#000000" stroke="none">
<path d="M2729 7205 c-280 -53 -492 -214 -580 -440 -25 -64 -32 -100 -36 -180
-13 -267 96 -431 437 -662 281 -190 362 -273 396 -402 72 -282 -190 -508 -565
-488 -165 9 -320 63 -456 161 -35 25 -51 32 -56 23 -14 -26 -70 -239 -66 -250
8 -21 152 -97 251 -132 247 -89 542 -85 761 8 139 59 278 172 343 280 111 183
121 436 24 622 -48 93 -166 209 -302 299 -58 38 -148 98 -201 133 -211 139
-296 280 -269 445 40 250 327 385 684 323 71 -13 232 -61 297 -89 13 -6 21 14
49 116 18 68 35 128 37 134 5 12 -166 65 -292 90 -114 22 -361 27 -456 9z"/>
<path d="M3810 6473 c0 -5 -4 -35 -9 -68 -5 -33 -12 -79 -15 -102 l-6 -43 160
0 c88 0 160 -3 160 -7 0 -5 -58 -276 -128 -603 l-128 -595 -172 -3 -171 -2 -6
-33 c-14 -87 -25 -164 -25 -184 l0 -23 469 0 c439 0 470 1 475 18 2 9 12 55
21 102 9 47 19 93 21 102 5 16 -9 18 -168 20 l-174 3 142 665 c77 366 146 686
151 713 l11 47 -304 0 c-167 0 -304 -3 -304 -7z"/>
<path d="M5659 5790 c-11 -58 -13 -60 -43 -60 -46 0 -98 -32 -123 -76 -29 -50
-31 -133 -5 -157 25 -23 64 -21 96 4 21 16 26 17 26 5 0 -19 14 -28 34 -20 10
4 16 18 16 35 0 15 14 92 30 169 17 77 30 145 30 150 0 6 -11 10 -24 10 -22 0
-26 -6 -37 -60z m-32 -147 c-7 -44 -57 -108 -83 -108 -26 0 -30 44 -8 87 21
41 42 57 73 58 22 0 23 -3 18 -37z"/>
<path d="M4903 5824 c-38 -19 -66 -73 -57 -109 3 -14 31 -46 60 -71 59 -50 66
-74 32 -98 -29 -21 -67 -20 -97 0 -19 14 -25 14 -32 3 -25 -39 21 -72 94 -66
60 5 99 33 111 79 11 45 -5 75 -64 120 -55 42 -61 75 -16 97 22 10 37 11 64 3
41 -13 41 -13 44 18 2 18 -3 25 -22 31 -42 12 -83 9 -117 -7z"/>
<path d="M5774 5815 c-10 -25 4 -47 28 -43 17 2 24 11 26 31 3 23 0 27 -23 27
-14 0 -28 -7 -31 -15z"/>
<path d="M5112 5768 c-7 -7 -12 -20 -12 -29 0 -9 -9 -19 -20 -22 -24 -6 -27
-37 -4 -37 10 0 14 -6 10 -17 -28 -93 -31 -146 -10 -167 29 -29 114 -11 114
25 0 23 -19 34 -33 20 -19 -19 -37 -12 -37 13 0 14 5 47 12 75 11 48 13 51 44
51 20 0 34 6 38 16 9 24 9 24 -29 24 -33 0 -34 1 -28 30 5 25 2 30 -14 30 -10
0 -24 -5 -31 -12z"/>
<path d="M6450 5722 c-49 -26 -83 -93 -77 -152 13 -116 154 -121 214 -6 18 35
20 104 4 134 -23 43 -85 53 -141 24z m88 -44 c19 -19 14 -72 -11 -109 -29 -43
-69 -51 -91 -17 -40 61 53 175 102 126z"/>
<path d="M5920 5723 c-23 -9 -60 -45 -76 -75 -54 -103 41 -208 136 -151 58 34
92 149 57 194 -25 33 -76 47 -117 32z m71 -67 c14 -30 6 -64 -22 -99 -40 -52
-98 -22 -84 43 16 71 83 107 106 56z"/>
<path d="M6230 5710 c0 -14 7 -20 21 -20 15 0 19 -5 15 -15 -3 -9 -11 -45 -17
-80 -11 -58 -15 -64 -38 -67 -15 -2 -27 -10 -29 -20 -3 -16 6 -18 72 -18 69 0
76 2 76 20 0 13 -7 20 -20 20 -27 0 -27 -6 15 178 5 21 2 22 -45 22 -43 0 -50
-3 -50 -20z"/>
<path d="M6655 5718 c-8 -23 -25 -102 -25 -119 0 -10 13 -20 32 -25 19 -6 39
-21 48 -36 13 -25 13 -29 -6 -55 -14 -19 -37 -32 -69 -40 -55 -14 -59 -17 -52
-38 13 -31 107 -7 154 40 26 26 33 41 33 72 0 44 -21 80 -56 93 -24 9 -30 32
-18 64 4 12 20 16 55 16 42 0 49 3 49 20 0 18 -7 20 -70 20 -48 0 -72 -4 -75
-12z"/>
<path d="M5237 5632 c-21 -109 -21 -117 -1 -136 22 -22 66 -20 98 5 l26 20 0
-20 c0 -22 8 -25 34 -15 10 4 16 18 16 38 0 17 9 68 19 114 l19 82 -27 0 c-25
0 -28 -5 -39 -58 -16 -79 -84 -159 -106 -124 -4 7 17 121 30 165 4 13 -1 17
-23 17 -29 0 -29 -2 -46 -88z"/>
<path d="M5756 5703 c-2 -10 -12 -54 -21 -98 -9 -44 -19 -88 -22 -98 -4 -15 0
-18 23 -15 27 3 29 7 50 108 13 58 23 108 24 113 0 16 -49 6 -54 -10z"/>
<path d="M6690 5106 l0 -186 40 0 39 0 3 91 c2 75 6 94 21 103 12 8 22 8 35 0
14 -9 18 -28 20 -103 l3 -91 34 0 35 0 0 105 c0 100 -1 107 -26 132 -22 22
-32 25 -74 21 l-49 -5 -3 56 -3 56 -37 3 -38 3 0 -185z"/>
<path d="M8640 5106 l0 -186 40 0 39 0 3 91 c2 75 6 94 21 103 12 8 22 8 35 0
14 -9 18 -28 20 -103 l3 -91 34 0 35 0 0 105 c0 100 -1 107 -26 132 -22 22
-32 25 -74 21 l-49 -5 -3 56 -3 56 -37 3 -38 3 0 -185z"/>
<path d="M9600 5105 l0 -185 40 0 40 0 0 185 0 185 -40 0 -40 0 0 -185z"/>
<path d="M9990 5105 l0 -187 38 3 c20 1 53 -1 73 -5 47 -10 93 13 115 56 12
22 15 49 12 96 -4 55 -8 68 -32 88 -28 25 -79 32 -106 14 -13 -8 -16 1 -20 53
l-5 62 -37 3 -38 3 0 -186z m146 7 c18 -11 26 -51 20 -88 -8 -40 -37 -60 -66
-44 -16 9 -20 21 -20 63 0 67 27 95 66 69z"/>
<path d="M4830 5146 c0 -122 2 -136 23 -167 32 -48 81 -71 140 -66 57 5 95 30
119 78 14 27 18 60 18 162 l0 127 -40 0 -40 0 0 -124 c0 -143 -11 -169 -70
-169 -59 0 -70 26 -70 169 l0 124 -40 0 -40 0 0 -134z"/>
<path d="M5160 5273 c-1 -4 23 -86 52 -180 l52 -173 38 0 37 0 38 117 37 118
37 -115 36 -115 39 0 38 0 53 170 c29 94 53 173 53 178 0 4 -18 7 -40 7 l-39
0 -20 -67 c-11 -38 -26 -90 -33 -116 l-14 -48 -34 106 c-19 58 -40 111 -47
116 -6 6 -22 9 -35 7 -19 -2 -28 -19 -58 -105 -19 -56 -38 -104 -41 -107 -3
-4 -19 42 -35 101 l-29 108 -43 3 c-23 2 -42 0 -42 -5z"/>
<path d="M5700 5100 l0 -180 121 0 120 0 -3 28 c-3 27 -4 27 -80 30 l-78 3 0
44 0 45 60 0 60 0 0 30 0 30 -60 0 -60 0 0 40 0 39 78 3 77 3 0 30 0 30 -117
3 -118 3 0 -181z"/>
<path d="M6035 5256 c-138 -83 -97 -318 61 -342 51 -7 110 6 144 34 19 16 21
22 11 40 -14 26 -28 27 -67 7 -16 -8 -37 -15 -47 -15 -33 0 -74 29 -91 64 -19
40 -19 40 -5 89 19 70 69 93 145 65 29 -10 36 -9 54 7 27 25 26 28 -19 53 -54
31 -133 30 -186 -2z"/>
<path d="M6400 5101 l0 -181 40 0 40 0 0 60 0 60 49 0 c94 0 156 75 128 157
-20 60 -53 76 -162 81 l-95 4 0 -181z m168 97 c16 -16 15 -63 -2 -77 -8 -7
-30 -15 -50 -18 l-36 -6 0 57 0 56 38 0 c21 0 43 -5 50 -12z"/>
<path d="M9355 5256 c-138 -83 -97 -318 61 -342 51 -7 110 6 144 34 19 16 21
22 11 40 -14 26 -28 27 -67 7 -38 -20 -63 -19 -100 4 -42 26 -59 75 -44 130
20 74 69 97 146 69 29 -10 36 -9 54 7 27 25 26 28 -19 53 -54 31 -133 30 -186
-2z"/>
<path d="M7276 5238 c-3 -7 -7 -25 -10 -40 -4 -19 -13 -28 -26 -28 -15 0 -20
-7 -20 -25 0 -18 5 -25 20 -25 18 0 20 -7 20 -82 0 -90 3 -99 39 -117 25 -14
86 -7 96 9 12 20 -6 49 -33 52 -26 3 -27 5 -30 71 l-3 67 36 0 c34 0 36 2 33
28 -2 22 -8 28 -35 30 -30 3 -33 6 -33 38 0 30 -3 34 -25 34 -14 0 -27 -6 -29
-12z"/>
<path d="M7008 5162 c-59 -36 -76 -132 -35 -193 45 -67 139 -75 196 -18 55 55
51 152 -10 203 -37 31 -108 35 -151 8z m106 -58 c23 -23 21 -89 -4 -114 -24
-24 -29 -24 -58 -4 -16 11 -22 25 -22 55 0 22 5 49 10 60 13 23 53 25 74 3z"/>
<path d="M7458 5162 c-59 -36 -76 -132 -35 -193 45 -67 139 -75 196 -18 55 55
51 152 -10 203 -37 31 -108 35 -151 8z m106 -58 c23 -23 21 -89 -4 -114 -24
-24 -29 -24 -58 -4 -16 11 -22 25 -22 55 0 22 5 49 10 60 13 23 53 25 74 3z"/>
<path d="M7715 5157 c-20 -17 -27 -32 -27 -60 0 -21 5 -44 12 -52 8 -10 9 -19
0 -35 -6 -11 -8 -29 -5 -40 3 -10 -1 -29 -9 -42 -12 -19 -13 -28 -3 -48 19
-37 54 -51 120 -47 46 3 63 9 87 32 61 58 23 125 -71 125 -26 0 -51 5 -54 10
-4 6 9 10 33 10 55 0 92 31 92 76 0 24 5 34 15 34 9 0 15 9 15 24 0 21 -5 24
-61 30 -97 10 -116 8 -144 -17z m108 -49 c7 -21 -12 -48 -33 -48 -21 0 -40 27
-33 48 3 6 17 12 33 12 16 0 30 -6 33 -12z m16 -187 c24 -15 1 -31 -44 -31
-44 0 -62 11 -50 30 8 12 75 13 94 1z"/>
<path d="M7940 5050 l0 -130 40 0 40 0 0 83 c0 90 8 107 51 107 22 0 27 5 31
30 3 17 2 32 0 35 -9 9 -52 5 -72 -5 -13 -7 -21 -7 -25 0 -3 5 -19 10 -36 10
l-29 0 0 -130z"/>
<path d="M8148 5164 c-29 -15 -34 -29 -19 -53 8 -13 15 -13 49 -1 48 15 72 9
72 -20 0 -15 -7 -20 -27 -20 -39 0 -96 -31 -109 -59 -9 -17 -9 -32 -2 -53 14
-39 51 -53 103 -40 22 5 57 7 78 5 l37 -5 0 78 c0 96 -13 148 -43 169 -27 19
-103 19 -139 -1z m102 -157 c0 -20 -22 -37 -47 -37 -27 0 -31 24 -5 39 24 15
52 13 52 -2z"/>
<path d="M8372 5008 l3 -173 35 0 c34 0 35 1 38 43 3 43 3 43 36 36 43 -8 90
16 111 56 32 61 12 175 -34 200 -27 14 -84 13 -99 -2 -9 -9 -15 -9 -24 0 -7 7
-25 12 -40 12 l-28 0 2 -172z m144 104 c18 -11 26 -51 20 -88 -8 -40 -37 -60
-66 -44 -16 9 -20 21 -20 63 0 67 27 95 66 69z"/>
<path d="M8890 5168 c0 -7 21 -61 46 -120 l46 -106 -21 -48 c-25 -55 -17 -73
26 -58 23 8 37 33 94 164 37 85 68 161 68 168 1 9 -10 12 -35 10 -35 -3 -38
-6 -64 -73 l-28 -70 -16 38 c-9 20 -23 53 -30 72 -13 31 -19 35 -50 35 -22 0
-36 -5 -36 -12z"/>
<path d="M9720 5076 c0 -96 2 -107 24 -132 19 -23 31 -28 67 -26 24 1 65 1 92
1 l47 0 0 131 0 130 -35 0 -35 0 0 -89 c0 -89 -4 -101 -41 -114 -35 -12 -44 9
-47 108 l-4 95 -34 0 -34 0 0 -104z"/>
</g>
</svg>
